<svg width="191" height="14" viewBox="0 0 191 14" fill="none" xmlns="http://www.w3.org/2000/svg">
    <path d="M4 7H186.5" stroke="#D4D4D4"/>
    <circle cx="4" cy="7" r="4" fill="#828282"/>
    <circle cx="187" cy="7" r="4" fill="#828282"/>
    <path fill-rule="evenodd" clip-rule="evenodd" d="M97.2146 0.868211C97.0902 0.433142 97.4169 0 97.8694 0V0C98.0932 0 98.3028 0.109979 98.4299 0.294188L102.144 5.67511L105.909 5.85406C106.52 5.88308 107 6.38664 107 6.998V6.998C107 7.63049 106.487 8.14323 105.855 8.14323H102.144L98.4293 13.6973C98.3028 13.8864 98.0902 14 97.8627 14V14C97.412 14 97.0854 13.5706 97.2057 13.1363L98.5888 8.14323L94.8573 8.14323L93.8626 10.183C93.7865 10.3391 93.628 10.4381 93.4543 10.4381V10.4381C93.2034 10.4381 93 10.2347 93 9.98385V3.73602C93 3.51238 93.1788 3.32978 93.4024 3.32503V3.32503C93.5602 3.32168 93.7061 3.40904 93.7776 3.54982L94.8573 5.67511L98.5888 5.67511L97.2146 0.868211Z" fill="#505050"/>
</svg>
