<svg width="5" height="10" viewBox="0 0 5 10" fill="none" xmlns="http://www.w3.org/2000/svg">
    <path d="M4.26667 3.58594L1.20733 0.52861C1.0804 0.413836 0.914182 0.352272 0.743106 0.356665C0.57203 0.361058 0.409195 0.431071 0.288315 0.552209C0.167434 0.673346 0.0977675 0.83633 0.093738 1.00741C0.0897084 1.1785 0.151625 1.34458 0.266668 1.47128L3.324 4.52861C3.44898 4.65363 3.51919 4.82317 3.51919 4.99994C3.51919 5.17672 3.44898 5.34626 3.324 5.47128L0.266668 8.52861C0.141662 8.6537 0.0714707 8.82333 0.0715332 9.00018C0.0715958 9.17702 0.141908 9.3466 0.267002 9.47161C0.392095 9.59661 0.561724 9.66681 0.738571 9.66674C0.915417 9.66668 1.085 9.59637 1.21 9.47128L4.26667 6.41394C4.64161 6.03889 4.85224 5.53027 4.85224 4.99994C4.85224 4.46961 4.64161 3.961 4.26667 3.58594Z" fill="#64748B"/>
</svg>