<svg width="10" height="5" viewBox="0 0 10 5" fill="none" xmlns="http://www.w3.org/2000/svg">
<path d="M6.414 4.26642L9.47133 1.20709C9.5861 1.08015 9.64767 0.913938 9.64327 0.742862C9.63888 0.571786 9.56887 0.408951 9.44773 0.288071C9.32659 0.16719 9.16361 0.0975233 8.99252 0.0934938C8.82144 0.0894642 8.65536 0.15138 8.52866 0.266424L5.47133 3.32376C5.34631 3.44874 5.17677 3.51895 5 3.51895C4.82322 3.51895 4.65368 3.44874 4.52866 3.32376L1.47133 0.266423C1.34624 0.141418 1.17661 0.0712262 0.999761 0.0712887C0.822914 0.0713512 0.653335 0.141663 0.528329 0.266757C0.403324 0.391851 0.333132 0.561479 0.333195 0.738326C0.333257 0.915173 0.403568 1.08475 0.528663 1.20976L3.586 4.26642C3.96105 4.64137 4.46967 4.852 5 4.852C5.53032 4.852 6.03894 4.64137 6.414 4.26642Z" fill="#64748B"/>
</svg>