<svg width="23" height="26" viewBox="0 0 23 26" fill="none" xmlns="http://www.w3.org/2000/svg">
    <path d="M21.508 8.125H0.591964C0.266384 8.125 0 7.85078 0 7.51562V5.6875C0 4.3418 1.0606 3.25 2.36786 3.25H4.73571V0.609375C4.73571 0.274219 5.0021 0 5.32768 0H7.30089C7.62647 0 7.89286 0.274219 7.89286 0.609375V3.25H14.2071V0.609375C14.2071 0.274219 14.4735 0 14.7991 0H16.7723C17.0979 0 17.3643 0.274219 17.3643 0.609375V3.25H19.7321C21.0394 3.25 22.1 4.3418 22.1 5.6875V7.51562C22.1 7.85078 21.8336 8.125 21.508 8.125ZM0.591964 9.75H21.508C21.8336 9.75 22.1 10.0242 22.1 10.3594V23.5625C22.1 24.9082 21.0394 26 19.7321 26H2.36786C1.0606 26 0 24.9082 0 23.5625V10.3594C0 10.0242 0.266384 9.75 0.591964 9.75ZM6.31429 20.1094C6.31429 19.7742 6.0479 19.5 5.72232 19.5H3.74911C3.42353 19.5 3.15714 19.7742 3.15714 20.1094V22.1406C3.15714 22.4758 3.42353 22.75 3.74911 22.75H5.72232C6.0479 22.75 6.31429 22.4758 6.31429 22.1406V20.1094ZM6.31429 13.6094C6.31429 13.2742 6.0479 13 5.72232 13H3.74911C3.42353 13 3.15714 13.2742 3.15714 13.6094V15.6406C3.15714 15.9758 3.42353 16.25 3.74911 16.25H5.72232C6.0479 16.25 6.31429 15.9758 6.31429 15.6406V13.6094ZM12.6286 20.1094C12.6286 19.7742 12.3622 19.5 12.0366 19.5H10.0634C9.73781 19.5 9.47143 19.7742 9.47143 20.1094V22.1406C9.47143 22.4758 9.73781 22.75 10.0634 22.75H12.0366C12.3622 22.75 12.6286 22.4758 12.6286 22.1406V20.1094ZM12.6286 13.6094C12.6286 13.2742 12.3622 13 12.0366 13H10.0634C9.73781 13 9.47143 13.2742 9.47143 13.6094V15.6406C9.47143 15.9758 9.73781 16.25 10.0634 16.25H12.0366C12.3622 16.25 12.6286 15.9758 12.6286 15.6406V13.6094ZM18.9429 20.1094C18.9429 19.7742 18.6765 19.5 18.3509 19.5H16.3777C16.0521 19.5 15.7857 19.7742 15.7857 20.1094V22.1406C15.7857 22.4758 16.0521 22.75 16.3777 22.75H18.3509C18.6765 22.75 18.9429 22.4758 18.9429 22.1406V20.1094ZM18.9429 13.6094C18.9429 13.2742 18.6765 13 18.3509 13H16.3777C16.0521 13 15.7857 13.2742 15.7857 13.6094V15.6406C15.7857 15.9758 16.0521 16.25 16.3777 16.25H18.3509C18.6765 16.25 18.9429 15.9758 18.9429 15.6406V13.6094Z" fill="white"/>
</svg>