<svg width="23" height="21" viewBox="0 0 23 21" fill="none" xmlns="http://www.w3.org/2000/svg">
    <path d="M21.7378 16.1195H7.0122V15.4183C7.0122 15.0326 6.69665 14.7171 6.31098 14.7171H4.90854C4.52287 14.7171 4.20732 15.0326 4.20732 15.4183V16.1195H0.70122C0.315549 16.1195 0 16.4351 0 16.8207V18.2232C0 18.6088 0.315549 18.9244 0.70122 18.9244H4.20732V19.6256C4.20732 20.0113 4.52287 20.3268 4.90854 20.3268H6.31098C6.69665 20.3268 7.0122 20.0113 7.0122 19.6256V18.9244H21.7378C22.1235 18.9244 22.439 18.6088 22.439 18.2232V16.8207C22.439 16.4351 22.1235 16.1195 21.7378 16.1195ZM21.7378 9.10732H18.2317V8.4061C18.2317 8.02043 17.9162 7.70488 17.5305 7.70488H16.128C15.7424 7.70488 15.4268 8.02043 15.4268 8.4061V9.10732H0.70122C0.315549 9.10732 0 9.42287 0 9.80854V11.211C0 11.5967 0.315549 11.9122 0.70122 11.9122H15.4268V12.6134C15.4268 12.9991 15.7424 13.3146 16.128 13.3146H17.5305C17.9162 13.3146 18.2317 12.9991 18.2317 12.6134V11.9122H21.7378C22.1235 11.9122 22.439 11.5967 22.439 11.211V9.80854C22.439 9.42287 22.1235 9.10732 21.7378 9.10732ZM21.7378 2.09513H12.622V1.39391C12.622 1.00824 12.3064 0.692688 11.9207 0.692688H10.5183C10.1326 0.692688 9.81707 1.00824 9.81707 1.39391V2.09513H0.70122C0.315549 2.09513 0 2.41068 0 2.79635V4.19879C0 4.58446 0.315549 4.90001 0.70122 4.90001H9.81707V5.60122C9.81707 5.9869 10.1326 6.30244 10.5183 6.30244H11.9207C12.3064 6.30244 12.622 5.9869 12.622 5.60122V4.90001H21.7378C22.1235 4.90001 22.439 4.58446 22.439 4.19879V2.79635C22.439 2.41068 22.1235 2.09513 21.7378 2.09513Z" fill="white"/>
</svg>