<svg width="40" height="40" viewBox="0 0 40 40" fill="none" xmlns="http://www.w3.org/2000/svg">
    <circle cx="20" cy="20" r="20" fill="#F1F5F9"/>
    <g clip-path="url(#clip0_77_210)">
        <path d="M16.6667 26.6667H15.3333C14.8029 26.6667 14.2942 26.456 13.9191 26.0809C13.544 25.7058 13.3333 25.1971 13.3333 24.6667V15.3333C13.3333 14.8029 13.544 14.2942 13.9191 13.9191C14.2942 13.544 14.8029 13.3333 15.3333 13.3333H16.6667C16.8435 13.3333 17.013 13.2631 17.1381 13.1381C17.2631 13.013 17.3333 12.8435 17.3333 12.6667C17.3333 12.4899 17.2631 12.3203 17.1381 12.1953C17.013 12.0702 16.8435 12 16.6667 12H15.3333C14.4496 12.0011 13.6024 12.3526 12.9775 12.9775C12.3526 13.6024 12.0011 14.4496 12 15.3333L12 24.6667C12.0011 25.5504 12.3526 26.3976 12.9775 27.0225C13.6024 27.6474 14.4496 27.9989 15.3333 28H16.6667C16.8435 28 17.013 27.9298 17.1381 27.8047C17.2631 27.6797 17.3333 27.5101 17.3333 27.3333C17.3333 27.1565 17.2631 26.987 17.1381 26.8619C17.013 26.7369 16.8435 26.6667 16.6667 26.6667Z" fill="#64748B"/>
        <path d="M24.3586 24.4711L27.4166 21.4138C27.7904 21.0381 28.0003 20.5297 28.0003 19.9998C28.0003 19.4698 27.7904 18.9614 27.4166 18.5858L24.3586 15.5285C24.2329 15.407 24.0645 15.3398 23.8897 15.3413C23.7149 15.3429 23.5477 15.413 23.4241 15.5366C23.3005 15.6602 23.2304 15.8274 23.2289 16.0022C23.2273 16.177 23.2945 16.3454 23.416 16.4711L26.2773 19.3331H16C15.8232 19.3331 15.6536 19.4034 15.5286 19.5284C15.4036 19.6534 15.3333 19.823 15.3333 19.9998C15.3333 20.1766 15.4036 20.3462 15.5286 20.4712C15.6536 20.5962 15.8232 20.6665 16 20.6665H26.278L23.416 23.5285C23.3523 23.5899 23.3015 23.6635 23.2666 23.7448C23.2316 23.8262 23.2132 23.9137 23.2125 24.0022C23.2117 24.0907 23.2286 24.1785 23.2621 24.2604C23.2956 24.3424 23.3451 24.4168 23.4077 24.4794C23.4703 24.542 23.5447 24.5915 23.6267 24.625C23.7086 24.6585 23.7964 24.6754 23.8849 24.6746C23.9734 24.6738 24.0609 24.6555 24.1422 24.6205C24.2236 24.5856 24.2971 24.5348 24.3586 24.4711Z" fill="#64748B"/>
    </g>
    <defs>
        <clipPath id="clip0_77_210">
            <rect width="16" height="16" fill="white" transform="translate(12 12)"/>
        </clipPath>
    </defs>
</svg>