<svg width="13" height="14" viewBox="0 0 13 14" fill="none" xmlns="http://www.w3.org/2000/svg">
    <path d="M6.125 0C2.36731 0 0 1.17593 0 2.33398V3.88945C0 4.60341 4.59375 8.55586 4.59375 8.55586V13.2223C4.59298 13.7542 5.35938 14 6.125 14C6.89062 14 7.65702 13.7542 7.65625 13.2223V8.55586C7.65625 8.55586 12.25 4.60341 12.25 3.88945V2.33398C12.25 1.17593 9.88269 0 6.125 0ZM6.125 3.98433C3.37564 3.98356 1.42559 2.94761 1.42559 2.5603C1.42406 2.17532 3.37641 1.13627 6.125 1.13783C8.87359 1.13627 10.8259 2.17532 10.8244 2.55952C10.8244 2.94761 8.87436 3.98356 6.125 3.98433Z" fill="white"/>
</svg>