<svg width="12" height="12" viewBox="0 0 12 12" fill="none" xmlns="http://www.w3.org/2000/svg">
    <path d="M12 6C12 9.31444 9.31345 12 5.99997 12C2.68649 12 -3.05176e-05 9.31444 -3.05176e-05 6C-3.05176e-05 2.68749 2.68649 0 5.99997 0C9.31345 0 12 2.68749 12 6ZM5.99997 7.20968C5.38533 7.20968 4.88707 7.70794 4.88707 8.32258C4.88707 8.93722 5.38533 9.43548 5.99997 9.43548C6.61461 9.43548 7.11287 8.93722 7.11287 8.32258C7.11287 7.70794 6.61461 7.20968 5.99997 7.20968ZM4.94336 3.20937L5.12283 6.49969C5.13123 6.65366 5.25853 6.77419 5.41272 6.77419H6.58722C6.74141 6.77419 6.86871 6.65366 6.87711 6.49969L7.05657 3.20937C7.06565 3.04306 6.93324 2.90323 6.76669 2.90323H5.23323C5.06668 2.90323 4.93429 3.04306 4.94336 3.20937Z" fill="#A5A5A5"/>
</svg>