<svg width="58" height="58" viewBox="0 0 58 58" fill="none" xmlns="http://www.w3.org/2000/svg">
    <path opacity="0.4" d="M29 0.719605C29 0.322178 29.3223 -0.000932236 29.7196 0.00892663C35.2036 0.145009 40.5422 1.83422 45.1115 4.88738C49.8806 8.07394 53.5976 12.6031 55.7925 17.9022C57.9874 23.2012 58.5617 29.0322 57.4428 34.6576C56.3238 40.2831 53.5618 45.4504 49.5061 49.5061C45.4504 53.5618 40.2831 56.3238 34.6576 57.4428C29.0322 58.5617 23.2012 57.9874 17.9022 55.7925C12.6031 53.5976 8.07394 49.8806 4.88738 45.1115C1.83422 40.5422 0.145009 35.2036 0.00892659 29.7196C-0.000932253 29.3223 0.322178 29 0.719605 29C1.11703 29 1.43823 29.3223 1.4486 29.7196C1.58436 34.9189 3.18903 39.9793 6.08404 44.312C9.11246 48.8443 13.4169 52.3768 18.4529 54.4628C23.489 56.5489 29.0306 57.0947 34.3768 56.0312C39.7231 54.9678 44.634 52.3429 48.4884 48.4884C52.3429 44.634 54.9678 39.7231 56.0312 34.3768C57.0947 29.0306 56.5489 23.489 54.4628 18.4529C52.3768 13.4169 48.8443 9.11246 44.312 6.08404C39.9793 3.18903 34.9189 1.58436 29.7196 1.4486C29.3223 1.43823 29 1.11703 29 0.719605Z" fill="white"/>
    <path d="M29 0.719605C29 0.322178 29.3223 -0.000932739 29.7196 0.00892752C33.9207 0.113192 38.0522 1.12945 41.8264 2.99069C45.8159 4.9581 49.2993 7.81689 52.0072 11.3459C54.7152 14.8749 56.575 18.9796 57.4428 23.3424C58.3106 27.7052 58.1631 32.2091 57.0118 36.5058C55.8606 40.8024 53.7363 44.7767 50.8034 48.121C47.8704 51.4654 44.2075 54.0902 40.0978 55.7925C35.9882 57.4948 31.542 58.2288 27.1033 57.9379C22.9041 57.6627 18.8181 56.4771 15.1276 54.4668C14.7786 54.2767 14.6611 53.8357 14.8598 53.4915C15.0585 53.1474 15.4982 53.0303 15.8474 53.22C19.3465 55.1202 23.2185 56.241 27.1974 56.5018C31.4159 56.7783 35.6414 56.0806 39.5471 54.4629C43.4527 52.8451 46.9339 50.3505 49.7213 47.1721C52.5087 43.9937 54.5275 40.2167 55.6217 36.1333C56.7158 32.0498 56.856 27.7694 56.0312 23.6232C55.2065 19.4769 53.439 15.5759 50.8654 12.2221C48.2919 8.86817 44.9813 6.15125 41.1898 4.28148C37.6136 2.51788 33.6999 1.55255 29.7196 1.4486C29.3223 1.43823 29 1.11703 29 0.719605Z" fill="white"/>
    <path d="M41 29.5652V27.6665C41 24.4839 39.7357 21.4317 37.4853 19.1812C35.2348 16.9308 32.1826 15.6665 29 15.6665C25.8174 15.6665 22.7652 16.9308 20.5147 19.1812C18.2643 21.4317 17 24.4839 17 27.6665V29.5652C15.6016 30.1809 14.4571 31.2584 13.7582 32.6173C13.0593 33.9761 12.8484 35.5337 13.1607 37.0295C13.4731 38.5252 14.2899 39.8683 15.4742 40.8338C16.6586 41.7993 18.1387 42.3286 19.6667 42.3332C20.3739 42.3332 21.0522 42.0522 21.5523 41.5521C22.0524 41.052 22.3333 40.3737 22.3333 39.6665V31.6665C22.3333 30.9593 22.0524 30.281 21.5523 29.7809C21.0522 29.2808 20.3739 28.9998 19.6667 28.9998V27.6665C19.6667 25.1912 20.65 22.8172 22.4003 21.0668C24.1507 19.3165 26.5247 18.3332 29 18.3332C31.4754 18.3332 33.8493 19.3165 35.5997 21.0668C37.35 22.8172 38.3333 25.1912 38.3333 27.6665V28.9998C37.6261 28.9998 36.9478 29.2808 36.4477 29.7809C35.9476 30.281 35.6667 30.9593 35.6667 31.6665V39.6665H31.6667C31.3131 39.6665 30.9739 39.807 30.7239 40.057C30.4738 40.3071 30.3333 40.6462 30.3333 40.9998C30.3333 41.3535 30.4738 41.6926 30.7239 41.9426C30.9739 42.1927 31.3131 42.3332 31.6667 42.3332H38.3333C39.8614 42.3286 41.3414 41.7993 42.5258 40.8338C43.7101 39.8683 44.5269 38.5252 44.8393 37.0295C45.1517 35.5337 44.9407 33.9761 44.2418 32.6173C43.5429 31.2584 42.3985 30.1809 41 29.5652ZM19.6667 39.6665C18.6058 39.6665 17.5884 39.2451 16.8382 38.4949C16.0881 37.7448 15.6667 36.7274 15.6667 35.6665C15.6667 34.6056 16.0881 33.5882 16.8382 32.8381C17.5884 32.0879 18.6058 31.6665 19.6667 31.6665V39.6665ZM38.3333 39.6665V31.6665C39.3942 31.6665 40.4116 32.0879 41.1618 32.8381C41.9119 33.5882 42.3333 34.6056 42.3333 35.6665C42.3333 36.7274 41.9119 37.7448 41.1618 38.4949C40.4116 39.2451 39.3942 39.6665 38.3333 39.6665Z" fill="white"/>
</svg>